<svg width="28" height="28" fill="none" xmlns="http://www.w3.org/2000/svg">
    <path d="M3.242 8.679a11.509 11.509 0 013.114-3.943c1.791-1.48 3.846-2.37 6.15-2.644 2.707-.32 5.25.192 7.603 1.6.584.35 1.13.747 1.652 1.179.13.105.115.167.005.273a502.065 502.065 0 00-3.195 3.2c-.125.124-.192.115-.326.014-3.104-2.39-7.63-1.744-9.944 1.418a6.983 6.983 0 00-.968 1.806c-.02.057-.057.11-.086.167-.618-.469-1.24-.939-1.854-1.413-.719-.55-1.437-1.101-2.15-1.657z"
          fill="#E94335"></path>
    <path d="M7.25 16.243c.206.455.378.93.637 1.356 1.087 1.782 2.64 2.927 4.685 3.334 1.844.369 3.616.12 5.269-.805.057-.029.115-.057.168-.086.028.029.052.062.081.086 1.236.958 2.477 1.916 3.712 2.874-.593.59-1.269 1.064-1.988 1.476-2.083 1.188-4.34 1.667-6.715 1.485-2.96-.23-5.514-1.4-7.622-3.507-.924-.924-1.686-1.969-2.237-3.161.513-.393 1.025-.781 1.538-1.174.824-.628 1.648-1.25 2.472-1.878z"
          fill="#34A853"></path>
    <path d="M21.806 23.002c-1.235-.958-2.476-1.916-3.712-2.874a.699.699 0 01-.081-.086c.426-.33.862-.652 1.211-1.073a5.57 5.57 0 001.174-2.376c.024-.11.005-.149-.105-.144-.058.005-.11 0-.168 0-1.954 0-3.914-.005-5.868.005-.216 0-.263-.058-.259-.264.01-1.389.01-2.778 0-4.167 0-.177.048-.225.226-.225 3.583.005 7.166.005 10.754 0 .153 0 .215.038.253.201.293 1.317.274 2.64.096 3.971a12.977 12.977 0 01-.8 3.09 10.99 10.99 0 01-2.596 3.856c-.043.034-.086.058-.125.086z"
          fill="#4285F3"></path>
    <path d="M7.246 16.244L4.775 18.12c-.513.388-1.025.781-1.538 1.174-.398-.738-.656-1.519-.867-2.323-.402-1.557-.465-3.138-.244-4.724a10.99 10.99 0 011.111-3.563c.719.55 1.432 1.106 2.15 1.657.619.474 1.237.944 1.855 1.413-.106.513-.254 1.016-.302 1.543a7.434 7.434 0 00.278 2.812c.019.038.024.086.028.134z"
          fill="#FABB06"></path>
</svg>